# xmcd
#
# Track frame offsets:
#	150
#	17558
#	30355
#	45754
#	55057
#	65405
#	84912
#	95500
#	111139
#	121750
#	131958
#	146416
#	159402
#	172010
#	186989
#	200121
#	214916
#	228747
#	240358
#	257750
#
# Disc length: 3592 seconds
#
# Revision: 0
# Processed by: cddbd v1.5.2PL0 Copyright (c) Steve Scherf et al.
# Submitted via: dBpowerAMP V4.0
#
DISCID=0f0e0614
DTITLE=Jeffrey de Bruyn - Country Favourites Vol 2
DYEAR=2004
DGENRE=Country
TTITLE0=For all the wrong reasons
TTITLE1=Blue Spanish eyes
TTITLE2=Old flames
TTITLE3=Kiss an angel good morning
TTITLE4=Please help me I'm falling
TTITLE5=Music on deathrow
TTITLE6=I'm just me
TTITLE7=Sugar Daddy
TTITLE8=I can't help it if I'm still in love
TTITLE9=Just between you and me
TTITLE10=Overnight success
TTITLE11=Don't rock the jukebox
TTITLE12=Crystal chandeliers
TTITLE13=Here in the real world
TTITLE14=To good to be true
TTITLE15=Boot scootin' boogie
TTITLE16=Guitars and Cadilacs
TTITLE17=Before the next teardrop falls
TTITLE18=Pockets pockets full of gold
TTITLE19=The only time I feel
EXTD=
EXTT0=
EXTT1=
EXTT2=
EXTT3=
EXTT4=
EXTT5=
EXTT6=
EXTT7=
EXTT8=
EXTT9=
EXTT10=
EXTT11=
EXTT12=
EXTT13=
EXTT14=
EXTT15=
EXTT16=
EXTT17=
EXTT18=
EXTT19=
PLAYORDER=
